HIERARCHY
ROOT Hips
{
  OFFSET 279.157 85.6768 304.565
  CHANNELS 6 Xposition Yposition Zposition Zrotation Xrotation Yrotation
  JOINT LeftUpLeg
  {
    OFFSET 8.64259 1.95398 -2.38835
    CHANNELS 3 Zrotation Xrotation Yrotation
    JOINT LeftLeg
    {
      OFFSET 43.7702 0 0
      CHANNELS 3 Zrotation Xrotation Yrotation
      JOINT LeftFoot
      {
        OFFSET 40.6238 0 0
        CHANNELS 3 Zrotation Xrotation Yrotation
        JOINT LeftToeBase
        {
          OFFSET 12.7242 0 0
          CHANNELS 3 Zrotation Xrotation Yrotation
          End Site
          {
            OFFSET 0 0 0
          }
        }
      }
    }
  }
  JOINT RightUpLeg
  {
    OFFSET -8.2249 1.95398 -2.59336
    CHANNELS 3 Zrotation Xrotation Yrotation
    JOINT RightLeg
    {
      OFFSET 43.5653 0 0
      CHANNELS 3 Zrotation Xrotation Yrotation
      JOINT RightFoot
      {
        OFFSET 40.6238 0 0
        CHANNELS 3 Zrotation Xrotation Yrotation
        JOINT RightToeBase
        {
          OFFSET 12.7242 0 0
          CHANNELS 3 Zrotation Xrotation Yrotation
          End Site
          {
            OFFSET 0 0 0
          }
        }
      }
    }
  }
  JOINT Spine
  {
    OFFSET 0.165834 0.87714 6.61349
    CHANNELS 3 Zrotation Xrotation Yrotation
    JOINT Spine1
    {
      OFFSET 7.38963 1.71661e-005 0
      CHANNELS 3 Zrotation Xrotation Yrotation
      JOINT Spine2
      {
        OFFSET 11.9445 1.14441e-005 0
        CHANNELS 3 Zrotation Xrotation Yrotation
        JOINT Spine3
        {
          OFFSET 14.7254 4.19617e-005 0
          CHANNELS 3 Zrotation Xrotation Yrotation
          JOINT Spine4
          {
            OFFSET 10.9679 0 0
            CHANNELS 3 Zrotation Xrotation Yrotation
            JOINT RightShoulder
            {
              OFFSET 2.46616 -1.6653 3.69651
              CHANNELS 3 Zrotation Xrotation Yrotation
              JOINT RightArm
              {
                OFFSET 13.0012 0 0
                CHANNELS 3 Zrotation Xrotation Yrotation
                JOINT RightForeArm
                {
                  OFFSET 28.7848 1.52588e-005 0
                  CHANNELS 3 Zrotation Xrotation Yrotation
                  JOINT RightHand
                  {
                    OFFSET 26.5688 1.52588e-005 0
                    CHANNELS 3 Zrotation Xrotation Yrotation
                    End Site
                    {
                      OFFSET 0 0 0
                    }
                  }
                }
              }
            }
            JOINT LeftShoulder
            {
              OFFSET 2.38034 -1.29275 -3.7523
              CHANNELS 3 Zrotation Xrotation Yrotation
              JOINT LeftArm
              {
                OFFSET 16.3182 6.10351e-005 0
                CHANNELS 3 Zrotation Xrotation Yrotation
                JOINT LeftForeArm
                {
                  OFFSET 27.0901 0 0
                  CHANNELS 3 Zrotation Xrotation Yrotation
                  JOINT LeftHand
                  {
                    OFFSET 24.5451 1.52588e-005 0
                    CHANNELS 3 Zrotation Xrotation Yrotation
                    End Site
                    {
                      OFFSET 0 0 0
                    }
                  }
                }
              }
            }
            JOINT Neck
            {
              OFFSET 5.0226 -0.0266342 0
              CHANNELS 3 Zrotation Xrotation Yrotation
              JOINT Head
              {
                OFFSET 6.69364 2.86102e-005 0
                CHANNELS 3 Zrotation Xrotation Yrotation
                End Site
                {
                  OFFSET 0 0 0
                }
              }
            }
          }
        }
      }
    }
  }
}
MOTION
Frames:	7
Frame Time:	0.0416667
39.5542 93.1268 -195.186 -165.104 -86.8455 -159.777 -166.037 7.02677 98.6495 -83.464 4.13776 2.93901 57.4147 -1.13576 4.42524 25.5321 -0.20966 -5.93075 177.089 32.6329 101.114 -49.6673 -18.7982 0.817706 68.2544 -5.84397 -6.22414 17.3157 2.48873 6.27519 -1.90669 7.96098 -91.4464 10.9022 -4.46482 -2.45661 -0.762983 -4.56858 -2.25749 -23.3214 -3.52046 -3.6852 -3.30871 -3.52047 -3.68521 93.3637 -30.0793 -100.011 36.0277 12.6231 26.589 -52.5655 -40.3273 -78.381 -51.8846 10.7679 -42.538 -92.4756 -52.7065 75.7123 -7.43672 19.3558 -25.7535 75.4299 3.15433 -89.5974 11.859 -0.629138 -8.68249 18.0847 13.8008 3.66035 -13.7005 12.1678 1.83422 
39.504 92.8422 -188.67 -177.361 -85.7944 -168.209 -168.668 17.1933 101.238 -91.345 5.18738 4.49905 60.1153 1.40576 7.17884 21.1596 -0.735352 -11.2562 175.953 27.7079 104.467 -51.6617 -18.0238 2.23753 72.2504 -9.03629 -6.69913 18.553 1.82498 7.62085 -1.49445 8.25245 -91.8565 10.3022 -3.82612 -3.35646 -1.36704 -3.97006 -3.18484 -23.8921 -2.64155 -4.35018 -3.87945 -2.64154 -4.35019 92.5166 -32.6483 -100.949 37.0296 12.0162 14.9566 -34.761 -28.4746 -65.1658 -31.1727 0.184933 -18.4198 -93.3341 -55.5353 75.1791 -12.3954 16.9252 -15.2566 78.3945 3.1572 -90.1798 7.13196 -0.956629 -14.6129 20.0576 12.8618 3.88087 -13.2849 11.0816 1.91793 
39.4713 92.5239 -181.906 170.921 -85.2527 -179.854 -172.907 25.5201 100.041 -94.218 6.2074 5.12611 63.1024 3.66603 7.81838 18.6343 -1.97168 -10.6698 175.367 23.112 104.387 -54.1553 -18.1809 2.62079 77.0064 -12.6031 -7.71331 18.8875 1.5711 8.35513 -1.20529 8.33146 -91.9181 10.1475 -3.27606 -3.53172 -1.52369 -3.42823 -3.38422 -24.036 -2.06433 -4.35187 -4.02338 -2.06433 -4.35188 91.5043 -32.653 -102.898 36.3734 10.8152 4.65661 -34.4318 -19.7229 -64.8964 -27.6679 1.36907 -21.3049 -92.7031 -55.9124 76.148 -17.6607 14.1511 -3.35698 77.7277 1.87492 -91.0163 10.7657 -0.803095 -10.6353 19.4593 11.5553 4.79953 -11.6067 9.6132 1.5375 
39.4441 92.5184 -175.075 170.77 -85.5516 177.983 -175.554 32.4834 97.2278 -91.5677 6.17883 5.06155 66.0124 5.56219 8.29931 19.6364 -1.669 -10.2501 175.327 18.5572 102.312 -55.3554 -17.8491 2.01504 81.6142 -15.7344 -7.28546 19.859 1.48553 7.51895 -0.756884 8.23301 -91.6954 10.3652 -2.28393 -3.1694 -1.30736 -2.42113 -3.06592 -23.8176 -1.22656 -3.7086 -3.80497 -1.22655 -3.70861 90.9373 -32.2361 -104.127 34.1775 9.68152 -3.31135 -30.0924 -27.9344 -68.0258 -39.6413 1.29488 -17.1074 -91.3945 -55.6584 77.9216 -20.3521 13.3404 7.79166 76.548 -1.32084 -90.3237 13.6352 -0.801806 -9.41407 18.3851 9.38837 3.58074 -10.986 7.82993 2.81315 
39.5159 93.2077 -167.819 -171.58 -85.2896 -166.639 -176.384 36.104 94.7258 -83.2913 3.45946 4.57476 69.2623 7.22029 7.64175 20.3228 -1.9151 -8.45135 175.443 12.0204 99.5385 -53.3856 -20.095 1.0548 83.0055 -17.077 -7.63983 21.0694 0.99036 8.32836 0.0365261 8.10272 -91.3006 10.6555 -0.525884 -2.53769 -1.01776 -0.637031 -2.51211 -23.5331 0.260836 -2.57842 -3.52044 0.260827 -2.57843 91.0487 -30.4199 -104.528 32.5949 9.16649 -6.93448 -35.3324 -30.6902 -80.0934 -46.0522 -0.491268 -11.5163 -89.668 -53.8363 79.9978 -20.2559 15.8641 17.7571 74.8927 -5.44327 -90.5605 15.6294 -0.943222 -9.74923 15.8893 6.56205 -0.0913792 -9.58013 6.08251 4.92674 
39.6216 94.3244 -160.45 -152.833 -83.6278 -150.167 -176.644 36.7333 93.258 -71.1585 1.05666 3.65194 69.4299 6.97317 7.31072 21.154 -1.4901 -8.62003 175.077 4.96012 96.8112 -51.5484 -22.7242 -0.236664 80.8397 -16.0451 -8.90021 25.1646 -0.357521 9.94877 0.885523 8.05782 -90.9398 10.7651 1.32994 -1.99123 -0.906833 1.24104 -2.04781 -23.4396 1.86683 -1.49958 -3.4269 1.86683 -1.49959 90.9002 -26.731 -106.219 31.0321 11.278 -6.22295 -32.8967 -19.2704 -78.6133 -35.8243 1.80445 -18.9024 -88.0056 -53.1961 82.2783 -16.9829 19.2103 24.8835 73.3759 -8.70961 -90.5623 16.3841 -0.940446 -9.51219 13.5354 4.51315 -1.82749 -8.70497 4.59162 4.80121 
39.8294 95.7122 -152.116 -146.357 -81.1143 -145.905 -177.391 33.3235 92.3234 -55.8723 0.257268 2.81474 68.031 6.16451 6.30117 21.9742 -1.32351 -7.91683 173.732 -0.758662 89.3007 -47.7983 -25.2102 -1.61147 76.7363 -12.6748 -7.99659 29.0718 -1.48527 11.2504 1.78825 8.15428 -90.5723 10.5928 3.29863 -1.43228 -1.07498 3.2324 -1.57619 -23.643 3.57647 -0.373565 -3.63036 3.57647 -0.37358 91.5845 -22.7271 -106.329 29.8569 12.0117 -3.76893 -30.3875 -13.8169 -80.6791 -34.7006 2.63035 -21.128 -87.2152 -50.4317 82.962 -14.8116 21.8673 30.2369 72.8364 -11.5084 -90.2263 16.3008 -1.05269 -10.2244 12.7428 2.70882 -3.92144 -8.344 3.43917 3.35978 
